<svg width="350" height="152" viewBox="0 0 350 152" fill="none" xmlns="http://www.w3.org/2000/svg">
<g clip-path="url(#clip0_1_404)">
<path d="M26.3377 24.0792H46.9671L34.8498 92.705H69.299L66.5952 108.457H11.5165L26.3377 24.0792Z" fill="white"/>
<path d="M81.6166 45.4495H100.944L90.4292 108.758H70.3004L81.6166 45.4495Z" fill="white"/>
<path d="M238.34 45.4495H257.768L247.153 108.758H227.024L238.34 45.4495Z" fill="white"/>
<path d="M109.056 24.0792H178.355L175.651 40.0317L150.615 39.831L139.099 108.758H118.369L130.186 39.831H106.352L109.056 24.0792Z" fill="white"/>
<path d="M265.78 24.0792H335.079L332.375 40.0317L307.339 39.831L295.823 108.758H275.193L286.91 39.831H263.076L265.78 24.0792Z" fill="white"/>
<path d="M182.561 24.0792H237.84L235.136 40.0317L200.186 39.831L196.781 58.9941L228.727 59.295L226.023 75.2475H193.877L188.469 108.457H167.339L182.561 24.0792Z" fill="white"/>
<mask id="mask0_1_404" style="mask-type:luminance" maskUnits="userSpaceOnUse" x="0" y="0" width="350" height="152">
<path d="M350 0H0V152H350V0Z" fill="white"/>
</mask>
<g mask="url(#mask0_1_404)">
<path d="M105.05 29.2964C105.05 34.8145 100.143 39.229 94.2346 39.229C88.2261 39.229 83.4192 34.8145 83.4192 29.2964C83.4192 23.7782 88.3262 19.3637 94.2346 19.3637C100.243 19.3637 105.05 23.8785 105.05 29.2964Z" fill="#00AAC7"/>
</g>
<mask id="mask1_1_404" style="mask-type:luminance" maskUnits="userSpaceOnUse" x="0" y="0" width="350" height="152">
<path d="M350 0H0V152H350V0Z" fill="white"/>
</mask>
<g mask="url(#mask1_1_404)">
<path d="M261.774 29.2964C261.774 34.8145 256.867 39.229 250.959 39.229C244.95 39.229 240.143 34.8145 240.143 29.2964C240.143 23.7782 245.05 19.3637 250.959 19.3637C256.967 19.3637 261.774 23.8785 261.774 29.2964Z" fill="#00AAC7"/>
</g>
<mask id="mask2_1_404" style="mask-type:luminance" maskUnits="userSpaceOnUse" x="0" y="0" width="350" height="152">
<path d="M350 0H0V152H350V0Z" fill="white"/>
</mask>
<g mask="url(#mask2_1_404)">
<path d="M147.11 133.038L148.212 125.914C148.312 125.513 148.312 125.112 148.312 124.811C148.312 124.309 148.212 123.908 148.011 123.607C147.811 123.306 147.411 123.105 146.81 123.105C146.109 123.105 145.608 123.406 145.107 124.008C144.707 124.61 144.406 125.312 144.306 126.115L143.205 133.138H139.499L142.604 113.273H146.409L145.107 121.801C145.408 121.299 145.908 120.797 146.509 120.396C147.11 119.995 147.811 119.794 148.612 119.794C149.313 119.794 149.814 119.894 150.315 120.095C150.815 120.296 151.216 120.597 151.516 120.998C151.817 121.399 152.017 121.801 152.217 122.302C152.318 122.804 152.418 123.306 152.418 123.807C152.418 124.008 152.418 124.309 152.418 124.51C152.418 124.71 152.418 125.011 152.318 125.212L151.016 133.238H147.11V133.038Z" fill="#00AAC7"/>
</g>
<mask id="mask3_1_404" style="mask-type:luminance" maskUnits="userSpaceOnUse" x="0" y="0" width="350" height="152">
<path d="M350 0H0V152H350V0Z" fill="white"/>
</mask>
<g mask="url(#mask3_1_404)">
<path d="M157.124 127.62C157.124 127.72 157.124 127.72 157.124 127.82C157.124 128.222 157.225 128.523 157.325 128.824C157.425 129.125 157.625 129.325 157.926 129.526C158.126 129.727 158.426 129.927 158.727 130.028C159.027 130.128 159.328 130.228 159.628 130.228C160.229 130.228 160.73 130.128 161.23 129.827C161.731 129.626 162.132 129.225 162.432 128.824L164.835 130.931C164.134 131.834 163.233 132.436 162.332 132.837C161.431 133.238 160.429 133.439 159.328 133.439C158.526 133.439 157.725 133.339 157.024 133.038C156.323 132.737 155.722 132.436 155.222 131.934C154.721 131.432 154.32 130.83 154.02 130.128C153.72 129.426 153.619 128.523 153.619 127.62C153.619 126.516 153.82 125.413 154.12 124.51C154.521 123.506 154.921 122.704 155.622 122.001C156.223 121.299 157.024 120.697 157.825 120.296C158.727 119.894 159.628 119.694 160.629 119.694C161.431 119.694 162.132 119.794 162.732 120.095C163.333 120.296 163.934 120.697 164.335 121.199C164.835 121.7 165.136 122.202 165.436 122.904C165.737 123.607 165.837 124.409 165.837 125.312C165.837 125.613 165.837 126.015 165.737 126.516C165.637 127.018 165.637 127.419 165.536 127.82H157.124V127.62ZM162.432 125.011C162.432 124.911 162.432 124.811 162.432 124.71V124.409C162.432 123.807 162.232 123.306 161.831 123.005C161.431 122.603 160.93 122.403 160.229 122.403C159.828 122.403 159.428 122.503 159.127 122.603C158.827 122.804 158.526 123.005 158.226 123.205C157.926 123.406 157.725 123.707 157.625 124.008C157.425 124.309 157.325 124.61 157.325 124.911H162.432V125.011Z" fill="#00AAC7"/>
</g>
<mask id="mask4_1_404" style="mask-type:luminance" maskUnits="userSpaceOnUse" x="0" y="0" width="350" height="152">
<path d="M350 0H0V152H350V0Z" fill="white"/>
</mask>
<g mask="url(#mask4_1_404)">
<path d="M177.954 123.807C177.954 124.008 177.954 124.309 177.954 124.61C177.954 124.911 177.854 125.212 177.854 125.413L177.053 130.529C176.953 131.031 176.953 131.432 176.853 131.934C176.853 132.436 176.753 132.837 176.753 133.138H173.448C173.448 132.937 173.448 132.737 173.448 132.436C173.448 132.135 173.448 131.934 173.548 131.733C172.647 132.837 171.545 133.439 169.943 133.439C169.542 133.439 169.142 133.339 168.641 133.238C168.24 133.138 167.84 132.937 167.439 132.636C167.039 132.335 166.838 132.034 166.538 131.533C166.338 131.131 166.237 130.529 166.237 129.927C166.237 128.924 166.438 128.021 166.938 127.319C167.439 126.617 168.04 126.115 168.741 125.814C169.542 125.413 170.343 125.212 171.345 125.011C172.346 124.911 173.248 124.811 174.249 124.811C174.249 124.61 174.249 124.51 174.249 124.409V124.209C174.249 123.707 174.049 123.306 173.748 123.105C173.448 122.904 172.947 122.704 172.446 122.704C171.946 122.704 171.345 122.804 170.844 123.005C170.343 123.205 169.843 123.506 169.342 123.908L167.84 121.5C168.541 120.898 169.342 120.396 170.243 119.995C171.144 119.694 172.046 119.493 172.947 119.493C173.648 119.493 174.349 119.593 174.85 119.694C175.451 119.894 175.951 120.095 176.352 120.496C176.753 120.797 177.153 121.299 177.353 121.801C177.854 122.403 177.954 123.005 177.954 123.807ZM173.848 127.319C173.348 127.319 172.947 127.319 172.446 127.419C171.946 127.419 171.545 127.519 171.144 127.72C170.744 127.82 170.443 128.021 170.243 128.322C169.943 128.523 169.843 128.924 169.843 129.325C169.843 129.827 170.043 130.228 170.343 130.429C170.644 130.63 171.044 130.73 171.445 130.73C172.146 130.73 172.747 130.529 173.248 130.028C173.748 129.526 174.049 128.924 174.149 128.222L174.249 127.62H173.848V127.319Z" fill="#00AAC7"/>
</g>
<mask id="mask5_1_404" style="mask-type:luminance" maskUnits="userSpaceOnUse" x="0" y="0" width="350" height="152">
<path d="M350 0H0V152H350V0Z" fill="white"/>
</mask>
<g mask="url(#mask5_1_404)">
<path d="M178.956 133.038L182.06 113.172H185.966L182.761 133.038H178.956Z" fill="#00AAC7"/>
</g>
<mask id="mask6_1_404" style="mask-type:luminance" maskUnits="userSpaceOnUse" x="0" y="0" width="350" height="152">
<path d="M350 0H0V152H350V0Z" fill="white"/>
</mask>
<g mask="url(#mask6_1_404)">
<path d="M185.365 123.105L185.866 119.995H187.668L188.169 116.483H191.874L191.373 119.995H193.877L193.376 123.105H190.973L190.172 128.222C190.172 128.322 190.172 128.523 190.172 128.623C190.172 128.723 190.172 128.824 190.172 128.924C190.172 129.325 190.272 129.626 190.472 129.827C190.672 130.028 190.973 130.028 191.373 130.028C191.574 130.028 191.774 130.028 191.874 129.927C192.074 129.927 192.175 129.827 192.375 129.827L191.974 132.837C191.774 132.937 191.474 133.038 191.073 133.138C190.672 133.238 190.272 133.238 189.971 133.238C188.87 133.238 187.969 132.937 187.268 132.436C186.667 131.934 186.266 131.131 186.266 130.028C186.266 129.827 186.266 129.526 186.266 129.325C186.266 129.024 186.366 128.824 186.366 128.523L187.268 123.005H185.365V123.105Z" fill="#00AAC7"/>
</g>
<mask id="mask7_1_404" style="mask-type:luminance" maskUnits="userSpaceOnUse" x="0" y="0" width="350" height="152">
<path d="M350 0H0V152H350V0Z" fill="white"/>
</mask>
<g mask="url(#mask7_1_404)">
<path d="M200.987 133.038L202.089 125.914C202.189 125.513 202.189 125.112 202.189 124.811C202.189 124.309 202.089 123.908 201.888 123.607C201.688 123.306 201.288 123.105 200.687 123.105C199.986 123.105 199.485 123.406 198.984 124.008C198.584 124.61 198.283 125.312 198.183 126.115L197.082 133.138H193.376L196.481 113.273H200.286L198.984 121.801C199.285 121.299 199.785 120.797 200.386 120.396C200.987 119.995 201.688 119.794 202.489 119.794C203.19 119.794 203.691 119.894 204.192 120.095C204.692 120.296 205.093 120.597 205.393 120.998C205.694 121.399 205.894 121.801 206.094 122.302C206.195 122.804 206.295 123.306 206.295 123.807C206.295 124.008 206.295 124.309 206.295 124.51C206.295 124.71 206.295 125.011 206.195 125.212L204.893 133.238H200.987V133.038Z" fill="#00AAC7"/>
</g>
<mask id="mask8_1_404" style="mask-type:luminance" maskUnits="userSpaceOnUse" x="0" y="0" width="350" height="152">
<path d="M350 0H0V152H350V0Z" fill="white"/>
</mask>
<g mask="url(#mask8_1_404)">
<path d="M213.305 134.944C213.004 135.646 212.604 136.248 212.303 136.75C212.003 137.251 211.602 137.753 211.202 138.154C210.801 138.556 210.3 138.756 209.8 138.957C209.299 139.158 208.698 139.258 207.997 139.258C207.296 139.258 206.595 139.158 206.094 138.957L206.695 135.446C206.996 135.646 207.396 135.646 207.797 135.646C208.298 135.646 208.798 135.446 209.099 135.145C209.399 134.844 209.7 134.442 210 133.84L210.601 132.737L207.897 119.694H212.003L213.205 128.222L217.11 119.694H221.116L213.305 134.944Z" fill="#00AAC7"/>
</g>
<mask id="mask9_1_404" style="mask-type:luminance" maskUnits="userSpaceOnUse" x="0" y="0" width="350" height="152">
<path d="M350 0H0V152H350V0Z" fill="white"/>
</mask>
<g mask="url(#mask9_1_404)">
<path d="M226.423 128.824C226.724 129.325 227.124 129.727 227.625 129.927C228.126 130.228 228.627 130.329 229.127 130.329C229.628 130.329 230.029 130.228 230.329 130.028C230.629 129.827 230.83 129.526 230.83 129.125C230.83 128.824 230.73 128.523 230.429 128.322C230.129 128.121 229.728 127.921 229.227 127.72C228.727 127.519 228.226 127.319 227.825 127.118C227.425 126.917 227.024 126.617 226.824 126.316C226.524 126.015 226.323 125.714 226.223 125.312C226.123 124.911 226.023 124.51 226.023 124.008C226.023 123.306 226.123 122.603 226.423 122.102C226.724 121.5 227.124 121.098 227.525 120.697C228.026 120.296 228.526 119.995 229.227 119.794C229.828 119.593 230.529 119.493 231.23 119.493C232.132 119.493 233.033 119.694 233.734 119.995C234.535 120.296 235.136 120.797 235.637 121.5L233.233 123.707C233.033 123.406 232.732 123.105 232.332 122.804C231.931 122.603 231.531 122.503 230.93 122.503C230.529 122.503 230.129 122.603 229.828 122.804C229.528 123.005 229.328 123.306 229.328 123.707C229.328 124.008 229.428 124.209 229.728 124.409C230.029 124.61 230.329 124.71 230.83 124.911C231.931 125.212 232.833 125.714 233.433 126.316C234.034 126.917 234.335 127.72 234.335 128.924C234.335 129.727 234.134 130.429 233.834 131.031C233.534 131.633 233.133 132.135 232.632 132.436C232.132 132.837 231.531 133.138 230.93 133.238C230.329 133.439 229.628 133.539 229.027 133.539C227.926 133.539 227.024 133.339 226.123 132.937C225.322 132.536 224.621 131.934 224.02 131.232L226.423 128.824Z" fill="#00AAC7"/>
</g>
<mask id="mask10_1_404" style="mask-type:luminance" maskUnits="userSpaceOnUse" x="0" y="0" width="350" height="152">
<path d="M350 0H0V152H350V0Z" fill="white"/>
</mask>
<g mask="url(#mask10_1_404)">
<path d="M240.844 121.801C241.245 121.199 241.745 120.597 242.346 120.195C242.947 119.794 243.648 119.593 244.549 119.593C245.25 119.593 245.751 119.694 246.252 119.894C246.752 120.095 247.153 120.396 247.454 120.797C247.754 121.199 247.954 121.6 248.155 122.102C248.255 122.603 248.355 123.105 248.355 123.607C248.355 123.807 248.355 124.108 248.355 124.309C248.355 124.51 248.355 124.811 248.255 125.011L246.953 133.038H243.247L244.349 125.914C244.449 125.513 244.449 125.112 244.449 124.811C244.449 124.309 244.349 123.908 244.149 123.607C243.948 123.306 243.548 123.105 242.947 123.105C242.647 123.105 242.346 123.205 242.046 123.306C241.745 123.506 241.545 123.707 241.345 123.908C241.144 124.209 240.944 124.51 240.844 124.811C240.744 125.112 240.644 125.513 240.544 125.914L239.442 133.038H235.737L237.339 122.704C237.439 122.403 237.439 121.901 237.539 121.399C237.639 120.898 237.639 120.396 237.74 119.995H241.345C241.345 120.195 241.345 120.496 241.245 120.898C240.844 121.199 240.744 121.5 240.844 121.801Z" fill="#00AAC7"/>
</g>
<mask id="mask11_1_404" style="mask-type:luminance" maskUnits="userSpaceOnUse" x="0" y="0" width="350" height="152">
<path d="M350 0H0V152H350V0Z" fill="white"/>
</mask>
<g mask="url(#mask11_1_404)">
<path d="M260.873 123.807C260.873 124.008 260.873 124.309 260.873 124.61C260.873 124.911 260.773 125.212 260.773 125.413L259.971 130.529C259.871 131.031 259.871 131.432 259.771 131.934C259.771 132.436 259.671 132.837 259.671 133.138H256.366C256.366 132.937 256.366 132.737 256.366 132.436C256.366 132.135 256.366 131.934 256.466 131.733C255.565 132.837 254.464 133.439 252.861 133.439C252.461 133.439 252.06 133.339 251.559 133.238C251.159 133.138 250.758 132.937 250.358 132.636C249.957 132.335 249.757 132.034 249.456 131.533C249.256 131.131 249.156 130.529 249.156 129.927C249.156 128.924 249.356 128.021 249.857 127.319C250.358 126.617 250.959 126.115 251.66 125.814C252.461 125.413 253.262 125.212 254.263 125.011C255.265 124.911 256.166 124.811 257.167 124.811C257.167 124.61 257.167 124.51 257.167 124.409V124.209C257.167 123.707 256.967 123.306 256.667 123.105C256.366 122.904 255.866 122.704 255.365 122.704C254.864 122.704 254.263 122.804 253.763 123.005C253.262 123.205 252.761 123.506 252.26 123.908L250.758 121.5C251.459 120.898 252.26 120.396 253.162 119.995C254.063 119.694 254.964 119.493 255.866 119.493C256.567 119.493 257.167 119.593 257.768 119.694C258.369 119.894 258.87 120.095 259.27 120.496C259.671 120.797 260.072 121.299 260.272 121.801C260.672 122.403 260.873 123.005 260.873 123.807ZM256.667 127.319C256.166 127.319 255.765 127.319 255.265 127.419C254.764 127.419 254.363 127.519 253.963 127.72C253.562 127.82 253.262 128.021 253.062 128.322C252.861 128.523 252.661 128.924 252.661 129.325C252.661 129.827 252.861 130.228 253.162 130.429C253.462 130.63 253.863 130.73 254.263 130.73C254.964 130.73 255.565 130.529 256.066 130.028C256.567 129.526 256.867 128.924 256.967 128.222L257.067 127.62H256.667V127.319Z" fill="#00AAC7"/>
</g>
<mask id="mask12_1_404" style="mask-type:luminance" maskUnits="userSpaceOnUse" x="0" y="0" width="350" height="152">
<path d="M350 0H0V152H350V0Z" fill="white"/>
</mask>
<g mask="url(#mask12_1_404)">
<path d="M271.187 124.108C270.987 123.807 270.787 123.506 270.386 123.306C269.986 123.105 269.585 123.005 269.185 123.005C268.684 123.005 268.183 123.105 267.783 123.306C267.382 123.506 266.981 123.807 266.681 124.209C266.381 124.61 266.18 125.011 265.98 125.513C265.78 126.015 265.68 126.516 265.68 127.118C265.68 127.519 265.68 127.82 265.88 128.222C265.98 128.523 266.18 128.824 266.381 129.125C266.581 129.426 266.881 129.626 267.182 129.727C267.482 129.927 267.883 129.927 268.283 129.927C268.884 129.927 269.285 129.827 269.685 129.626C270.086 129.426 270.386 129.125 270.687 128.824L272.489 131.533C271.888 132.135 271.187 132.636 270.386 133.038C269.585 133.439 268.784 133.539 267.783 133.539C266.981 133.539 266.18 133.439 265.479 133.138C264.778 132.837 264.177 132.436 263.677 131.934C263.176 131.432 262.775 130.83 262.575 130.128C262.275 129.426 262.175 128.623 262.175 127.72C262.175 126.617 262.375 125.613 262.675 124.61C262.976 123.607 263.476 122.804 264.177 122.001C264.778 121.299 265.579 120.697 266.481 120.195C267.382 119.794 268.383 119.493 269.385 119.493C270.286 119.493 271.087 119.694 271.888 119.995C272.69 120.296 273.29 120.797 273.691 121.5L271.187 124.108Z" fill="#00AAC7"/>
</g>
<mask id="mask13_1_404" style="mask-type:luminance" maskUnits="userSpaceOnUse" x="0" y="0" width="350" height="152">
<path d="M350 0H0V152H350V0Z" fill="white"/>
</mask>
<g mask="url(#mask13_1_404)">
<path d="M280.801 133.038L277.797 126.717L276.795 133.038H272.99L276.094 113.172H279.9L277.997 125.212H278.097L282.504 119.894H287.21L281.602 126.015L285.308 133.038H280.801Z" fill="#00AAC7"/>
</g>
<mask id="mask14_1_404" style="mask-type:luminance" maskUnits="userSpaceOnUse" x="0" y="0" width="350" height="152">
<path d="M350 0H0V152H350V0Z" fill="white"/>
</mask>
<g mask="url(#mask14_1_404)">
<path d="M287.11 128.824C287.411 129.325 287.811 129.727 288.312 129.927C288.813 130.228 289.313 130.329 289.814 130.329C290.315 130.329 290.715 130.228 291.016 130.028C291.316 129.827 291.517 129.526 291.517 129.125C291.517 128.824 291.416 128.523 291.116 128.322C290.816 128.121 290.415 127.921 289.914 127.72C289.414 127.519 288.913 127.319 288.512 127.118C288.112 126.917 287.711 126.617 287.511 126.316C287.21 126.015 287.01 125.714 286.91 125.312C286.81 124.911 286.71 124.51 286.71 124.008C286.71 123.306 286.81 122.603 287.11 122.102C287.411 121.5 287.811 121.098 288.212 120.697C288.713 120.296 289.213 119.995 289.914 119.794C290.515 119.593 291.216 119.493 291.917 119.493C292.818 119.493 293.72 119.694 294.421 119.995C295.222 120.296 295.823 120.797 296.323 121.5L293.92 123.707C293.72 123.406 293.419 123.105 293.019 122.804C292.618 122.603 292.218 122.503 291.617 122.503C291.216 122.503 290.816 122.603 290.515 122.804C290.215 123.005 290.014 123.306 290.014 123.707C290.014 124.008 290.115 124.209 290.415 124.409C290.715 124.61 291.016 124.71 291.517 124.911C292.618 125.212 293.519 125.714 294.12 126.316C294.721 126.917 295.022 127.72 295.022 128.924C295.022 129.727 294.821 130.429 294.521 131.031C294.22 131.633 293.82 132.135 293.319 132.436C292.818 132.837 292.218 133.138 291.617 133.238C291.016 133.439 290.315 133.539 289.714 133.539C288.612 133.539 287.711 133.339 286.81 132.937C286.009 132.536 285.308 131.934 284.707 131.232L287.11 128.824Z" fill="#00AAC7"/>
</g>
</g>
<defs>
<clipPath id="clip0_1_404">
<rect width="350" height="152" fill="white"/>
</clipPath>
</defs>
</svg>
